<?xml version="1.0" encoding="UTF-8" standalone="no"?>
<!DOCTYPE svg PUBLIC "-//W3C//DTD SVG 1.1//EN"
 "http://www.w3.org/Graphics/SVG/1.1/DTD/svg11.dtd">
<!-- Generated by graphviz version 2.38.0 (20140413.2041)
 -->
<!-- Title: %3 Pages: 1 -->
<svg width="880pt" height="566pt"
 viewBox="0.00 0.00 880.34 566.00" xmlns="http://www.w3.org/2000/svg" xmlns:xlink="http://www.w3.org/1999/xlink">
<g id="graph0" class="graph" transform="scale(1 1) rotate(0) translate(4 562)">
<title>%3</title>
<polygon fill="white" stroke="none" points="-4,4 -4,-562 876.342,-562 876.342,4 -4,4"/>
<!-- Integer -->
<g id="node1" class="node"><title>Integer</title>
<ellipse fill="none" stroke="black" cx="449.096" cy="-540" rx="35.9954" ry="18"/>
<text text-anchor="middle" x="449.096" y="-536.3" font-family="Times,serif" font-size="14.00">Integer</text>
</g>
<!-- Class -->
<g id="node2" class="node"><title>Class</title>
<ellipse fill="none" stroke="black" cx="384.096" cy="-366" rx="29.795" ry="18"/>
<text text-anchor="middle" x="384.096" y="-362.3" font-family="Times,serif" font-size="14.00">Class</text>
</g>
<!-- Integer&#45;&gt;Class -->
<g id="edge1" class="edge"><title>Integer&#45;&gt;Class</title>
<path fill="none" stroke="blue" d="M417.058,-531.961C386.373,-523.331 341.773,-505.399 321.096,-471 304.646,-443.635 320.133,-426.083 341.096,-402 345.851,-396.537 351.526,-391.261 357.17,-386.535"/>
<polygon fill="blue" stroke="blue" points="359.67,-389.018 365.304,-380.045 355.304,-383.546 359.67,-389.018"/>
<text text-anchor="middle" x="332.096" y="-449.3" font-family="Times,serif" font-size="14.00">is_a</text>
</g>
<!-- Numeric -->
<g id="node8" class="node"><title>Numeric</title>
<ellipse fill="none" stroke="black" cx="830.096" cy="-453" rx="42.4939" ry="18"/>
<text text-anchor="middle" x="830.096" y="-449.3" font-family="Times,serif" font-size="14.00">Numeric</text>
</g>
<!-- Integer&#45;&gt;Numeric -->
<g id="edge12" class="edge"><title>Integer&#45;&gt;Numeric</title>
<path fill="none" stroke="red" d="M482.54,-533.368C542.328,-523.017 671.281,-499.403 778.096,-471 781.503,-470.094 785.016,-469.093 788.532,-468.044"/>
<polygon fill="red" stroke="red" points="789.848,-471.301 798.364,-464.999 787.776,-464.614 789.848,-471.301"/>
<text text-anchor="middle" x="719.096" y="-492.8" font-family="Times,serif" font-size="14.00">extends</text>
</g>
<!-- Class&#45;&gt;Class -->
<g id="edge2" class="edge"><title>Class&#45;&gt;Class</title>
<path fill="none" stroke="blue" d="M411.177,-373.806C422.443,-374.344 431.993,-371.742 431.993,-366 431.993,-362.142 427.682,-359.701 421.436,-358.679"/>
<polygon fill="blue" stroke="blue" points="421.331,-355.17 411.177,-358.194 421.001,-362.162 421.331,-355.17"/>
<text text-anchor="middle" x="442.993" y="-362.3" font-family="Times,serif" font-size="14.00">is_a</text>
</g>
<!-- Module -->
<g id="node3" class="node"><title>Module</title>
<ellipse fill="none" stroke="black" cx="456.096" cy="-279" rx="38.1938" ry="18"/>
<text text-anchor="middle" x="456.096" y="-275.3" font-family="Times,serif" font-size="14.00">Module</text>
</g>
<!-- Class&#45;&gt;Module -->
<g id="edge3" class="edge"><title>Class&#45;&gt;Module</title>
<path fill="none" stroke="red" d="M405.855,-353.415C415.49,-347.438 426.365,-339.419 434.096,-330 439.742,-323.121 444.205,-314.566 447.594,-306.489"/>
<polygon fill="red" stroke="red" points="450.912,-307.609 451.201,-297.018 444.371,-305.117 450.912,-307.609"/>
<text text-anchor="middle" x="464.096" y="-318.8" font-family="Times,serif" font-size="14.00">extends</text>
</g>
<!-- Module&#45;&gt;Class -->
<g id="edge4" class="edge"><title>Module&#45;&gt;Class</title>
<path fill="none" stroke="blue" d="M432.682,-293.645C424.166,-299.434 414.957,-306.756 408.096,-315 402.315,-321.945 397.548,-330.517 393.827,-338.59"/>
<polygon fill="blue" stroke="blue" points="390.498,-337.475 389.81,-348.047 396.941,-340.211 390.498,-337.475"/>
<text text-anchor="middle" x="419.096" y="-318.8" font-family="Times,serif" font-size="14.00">is_a</text>
</g>
<!-- Object -->
<g id="node4" class="node"><title>Object</title>
<ellipse fill="none" stroke="black" cx="491.096" cy="-192" rx="34.394" ry="18"/>
<text text-anchor="middle" x="491.096" y="-188.3" font-family="Times,serif" font-size="14.00">Object</text>
</g>
<!-- Module&#45;&gt;Object -->
<g id="edge5" class="edge"><title>Module&#45;&gt;Object</title>
<path fill="none" stroke="red" d="M457.717,-260.798C459.091,-250.897 461.591,-238.397 466.096,-228 467.687,-224.328 469.707,-220.659 471.908,-217.154"/>
<polygon fill="red" stroke="red" points="474.824,-219.089 477.606,-208.866 469.056,-215.123 474.824,-219.089"/>
<text text-anchor="middle" x="487.096" y="-231.8" font-family="Times,serif" font-size="14.00">extends</text>
</g>
<!-- Object&#45;&gt;Class -->
<g id="edge6" class="edge"><title>Object&#45;&gt;Class</title>
<path fill="none" stroke="blue" d="M462.931,-202.777C438.108,-213.049 403.427,-231.822 387.096,-261 373.979,-284.434 375.086,-315.725 378.319,-337.844"/>
<polygon fill="blue" stroke="blue" points="374.9,-338.618 380.024,-347.891 381.802,-337.447 374.9,-338.618"/>
<text text-anchor="middle" x="398.096" y="-275.3" font-family="Times,serif" font-size="14.00">is_a</text>
</g>
<!-- BasicObject -->
<g id="node5" class="node"><title>BasicObject</title>
<ellipse fill="none" stroke="black" cx="380.096" cy="-105" rx="53.8905" ry="18"/>
<text text-anchor="middle" x="380.096" y="-101.3" font-family="Times,serif" font-size="14.00">BasicObject</text>
</g>
<!-- Object&#45;&gt;BasicObject -->
<g id="edge7" class="edge"><title>Object&#45;&gt;BasicObject</title>
<path fill="none" stroke="red" d="M472.517,-176.773C455.128,-163.457 428.89,-143.365 408.808,-127.987"/>
<polygon fill="red" stroke="red" points="410.689,-125.019 400.622,-121.718 406.433,-130.577 410.689,-125.019"/>
<text text-anchor="middle" x="464.096" y="-144.8" font-family="Times,serif" font-size="14.00">extends</text>
</g>
<!-- BasicObject&#45;&gt;Class -->
<g id="edge8" class="edge"><title>BasicObject&#45;&gt;Class</title>
<path fill="none" stroke="blue" d="M377.463,-122.988C372.096,-160.565 361.353,-253.469 373.096,-330 373.516,-332.739 374.111,-335.557 374.809,-338.349"/>
<polygon fill="blue" stroke="blue" points="371.508,-339.533 377.663,-348.157 378.23,-337.577 371.508,-339.533"/>
<text text-anchor="middle" x="380.096" y="-231.8" font-family="Times,serif" font-size="14.00">is_a</text>
</g>
<!-- nil -->
<g id="node6" class="node"><title>nil</title>
<ellipse fill="none" stroke="black" cx="380.096" cy="-18" rx="27" ry="18"/>
<text text-anchor="middle" x="380.096" y="-14.3" font-family="Times,serif" font-size="14.00">nil</text>
</g>
<!-- BasicObject&#45;&gt;nil -->
<g id="edge9" class="edge"><title>BasicObject&#45;&gt;nil</title>
<path fill="none" stroke="red" d="M380.096,-86.799C380.096,-75.1626 380.096,-59.5479 380.096,-46.2368"/>
<polygon fill="red" stroke="red" points="383.596,-46.1754 380.096,-36.1754 376.596,-46.1755 383.596,-46.1754"/>
<text text-anchor="middle" x="401.096" y="-57.8" font-family="Times,serif" font-size="14.00">extends</text>
</g>
<!-- NilClass -->
<g id="node7" class="node"><title>NilClass</title>
<ellipse fill="none" stroke="black" cx="155.096" cy="-453" rx="40.8928" ry="18"/>
<text text-anchor="middle" x="155.096" y="-449.3" font-family="Times,serif" font-size="14.00">NilClass</text>
</g>
<!-- NilClass&#45;&gt;Class -->
<g id="edge10" class="edge"><title>NilClass&#45;&gt;Class</title>
<path fill="none" stroke="blue" d="M175.367,-437.144C191.402,-426.025 214.74,-411.206 237.096,-402 272.357,-387.479 314.97,-378.164 345.216,-372.824"/>
<polygon fill="blue" stroke="blue" points="346.095,-376.226 355.367,-371.1 344.922,-369.324 346.095,-376.226"/>
<text text-anchor="middle" x="248.096" y="-405.8" font-family="Times,serif" font-size="14.00">is_a</text>
</g>
<!-- NilClass&#45;&gt;Object -->
<g id="edge11" class="edge"><title>NilClass&#45;&gt;Object</title>
<path fill="none" stroke="red" d="M144.742,-435.342C139.942,-425.399 136.256,-412.673 141.096,-402 190.314,-293.471 237.53,-279.289 345.096,-228 377.717,-212.445 417.831,-203.473 447.751,-198.515"/>
<polygon fill="red" stroke="red" points="448.544,-201.934 457.88,-196.925 447.458,-195.019 448.544,-201.934"/>
<text text-anchor="middle" x="218.096" y="-318.8" font-family="Times,serif" font-size="14.00">extends</text>
</g>
<!-- Numeric&#45;&gt;Class -->
<g id="edge13" class="edge"><title>Numeric&#45;&gt;Class</title>
<path fill="none" stroke="blue" d="M798.051,-441.046C791.481,-438.935 784.59,-436.818 778.096,-435 716.118,-417.651 700.373,-413.756 637.096,-402 562.003,-388.049 473.423,-377.027 423.502,-371.308"/>
<polygon fill="blue" stroke="blue" points="423.786,-367.817 413.455,-370.169 422.997,-374.773 423.786,-367.817"/>
<text text-anchor="middle" x="722.096" y="-405.8" font-family="Times,serif" font-size="14.00">is_a</text>
</g>
<!-- Numeric&#45;&gt;Object -->
<g id="edge14" class="edge"><title>Numeric&#45;&gt;Object</title>
<path fill="none" stroke="red" d="M826.05,-435.077C818.935,-407.808 802.209,-353.332 774.096,-315 734.281,-260.713 713.024,-251.925 650.096,-228 612.19,-213.588 566.832,-204.337 534.28,-198.989"/>
<polygon fill="red" stroke="red" points="534.611,-195.498 524.186,-197.388 533.515,-202.411 534.611,-195.498"/>
<text text-anchor="middle" x="805.096" y="-318.8" font-family="Times,serif" font-size="14.00">extends</text>
</g>
<!-- TrueClass -->
<g id="node9" class="node"><title>TrueClass</title>
<ellipse fill="none" stroke="black" cx="557.096" cy="-453" rx="46.2923" ry="18"/>
<text text-anchor="middle" x="557.096" y="-449.3" font-family="Times,serif" font-size="14.00">TrueClass</text>
</g>
<!-- TrueClass&#45;&gt;Class -->
<g id="edge15" class="edge"><title>TrueClass&#45;&gt;Class</title>
<path fill="none" stroke="blue" d="M521.885,-441.167C515,-439.089 507.829,-436.954 501.096,-435 472.307,-426.646 462.14,-431.842 436.096,-417 424.024,-410.121 412.65,-399.814 403.636,-390.343"/>
<polygon fill="blue" stroke="blue" points="405.976,-387.714 396.655,-382.676 400.8,-392.427 405.976,-387.714"/>
<text text-anchor="middle" x="447.096" y="-405.8" font-family="Times,serif" font-size="14.00">is_a</text>
</g>
<!-- TrueClass&#45;&gt;Object -->
<g id="edge16" class="edge"><title>TrueClass&#45;&gt;Object</title>
<path fill="none" stroke="red" d="M575.344,-436.192C580.988,-430.581 586.835,-423.927 591.096,-417 615.854,-376.752 636.162,-359.787 621.096,-315 605.621,-268.999 591.867,-259.677 555.096,-228 546.428,-220.533 535.907,-213.977 525.92,-208.619"/>
<polygon fill="red" stroke="red" points="527.466,-205.478 516.968,-204.044 524.28,-211.711 527.466,-205.478"/>
<text text-anchor="middle" x="646.096" y="-318.8" font-family="Times,serif" font-size="14.00">extends</text>
</g>
<!-- FalseClass -->
<g id="node10" class="node"><title>FalseClass</title>
<ellipse fill="none" stroke="black" cx="48.0957" cy="-453" rx="48.1917" ry="18"/>
<text text-anchor="middle" x="48.0957" y="-449.3" font-family="Times,serif" font-size="14.00">FalseClass</text>
</g>
<!-- FalseClass&#45;&gt;Class -->
<g id="edge17" class="edge"><title>FalseClass&#45;&gt;Class</title>
<path fill="none" stroke="blue" d="M78.4076,-438.959C105.434,-427.772 146.297,-411.929 183.096,-402 238.307,-387.102 303.822,-377.075 344.686,-371.7"/>
<polygon fill="blue" stroke="blue" points="345.302,-375.15 354.774,-370.402 344.409,-368.207 345.302,-375.15"/>
<text text-anchor="middle" x="194.096" y="-405.8" font-family="Times,serif" font-size="14.00">is_a</text>
</g>
<!-- FalseClass&#45;&gt;Object -->
<g id="edge18" class="edge"><title>FalseClass&#45;&gt;Object</title>
<path fill="none" stroke="red" d="M56.6193,-435.004C70.8919,-407.632 101.673,-353.015 138.096,-315 166.512,-285.341 176.558,-279.764 213.096,-261 289.865,-221.576 390.434,-204.346 447.168,-197.342"/>
<polygon fill="red" stroke="red" points="447.716,-200.802 457.236,-196.15 446.893,-193.85 447.716,-200.802"/>
<text text-anchor="middle" x="159.096" y="-318.8" font-family="Times,serif" font-size="14.00">extends</text>
</g>
<!-- Array -->
<g id="node11" class="node"><title>Array</title>
<ellipse fill="none" stroke="black" cx="245.096" cy="-453" rx="31.3957" ry="18"/>
<text text-anchor="middle" x="245.096" y="-449.3" font-family="Times,serif" font-size="14.00">Array</text>
</g>
<!-- Array&#45;&gt;Class -->
<g id="edge19" class="edge"><title>Array&#45;&gt;Class</title>
<path fill="none" stroke="blue" d="M251.937,-434.988C257.096,-424.143 265.162,-410.567 276.096,-402 295.919,-386.469 322.856,-377.722 344.869,-372.857"/>
<polygon fill="blue" stroke="blue" points="345.802,-376.239 354.909,-370.826 344.414,-369.378 345.802,-376.239"/>
<text text-anchor="middle" x="287.096" y="-405.8" font-family="Times,serif" font-size="14.00">is_a</text>
</g>
<!-- Array&#45;&gt;Object -->
<g id="edge20" class="edge"><title>Array&#45;&gt;Object</title>
<path fill="none" stroke="red" d="M248.891,-435.054C259.279,-392.821 292.317,-282.383 364.096,-228 387.994,-209.894 420.721,-201.153 446.967,-196.934"/>
<polygon fill="red" stroke="red" points="447.642,-200.373 457.041,-195.482 446.643,-193.445 447.642,-200.373"/>
<text text-anchor="middle" x="315.096" y="-318.8" font-family="Times,serif" font-size="14.00">extends</text>
</g>
<!-- String -->
<g id="node12" class="node"><title>String</title>
<ellipse fill="none" stroke="black" cx="460.096" cy="-453" rx="32.4942" ry="18"/>
<text text-anchor="middle" x="460.096" y="-449.3" font-family="Times,serif" font-size="14.00">String</text>
</g>
<!-- String&#45;&gt;Class -->
<g id="edge21" class="edge"><title>String&#45;&gt;Class</title>
<path fill="none" stroke="blue" d="M435.534,-440.902C416.901,-432.26 394.004,-421.072 391.096,-417 386.42,-410.454 384.197,-402.174 383.269,-394.246"/>
<polygon fill="blue" stroke="blue" points="386.76,-393.987 382.698,-384.202 379.772,-394.384 386.76,-393.987"/>
<text text-anchor="middle" x="402.096" y="-405.8" font-family="Times,serif" font-size="14.00">is_a</text>
</g>
<!-- String&#45;&gt;Object -->
<g id="edge22" class="edge"><title>String&#45;&gt;Object</title>
<path fill="none" stroke="red" d="M485.208,-441.187C490.72,-438.996 496.564,-436.811 502.096,-435 533.033,-424.869 553.104,-442.692 573.096,-417 599.378,-383.223 560.814,-262.937 536.096,-228 532.025,-222.246 526.736,-216.984 521.222,-212.387"/>
<polygon fill="red" stroke="red" points="523.161,-209.463 513.098,-206.146 518.896,-215.014 523.161,-209.463"/>
<text text-anchor="middle" x="596.096" y="-318.8" font-family="Times,serif" font-size="14.00">extends</text>
</g>
<!-- Hash -->
<g id="node13" class="node"><title>Hash</title>
<ellipse fill="none" stroke="black" cx="381.096" cy="-453" rx="28.6953" ry="18"/>
<text text-anchor="middle" x="381.096" y="-449.3" font-family="Times,serif" font-size="14.00">Hash</text>
</g>
<!-- Hash&#45;&gt;Class -->
<g id="edge23" class="edge"><title>Hash&#45;&gt;Class</title>
<path fill="none" stroke="blue" d="M362.38,-438.874C351.165,-429.266 340.139,-415.586 346.096,-402 348.588,-396.317 352.508,-391.149 356.903,-386.633"/>
<polygon fill="blue" stroke="blue" points="359.522,-388.983 364.579,-379.673 354.82,-383.798 359.522,-388.983"/>
<text text-anchor="middle" x="357.096" y="-405.8" font-family="Times,serif" font-size="14.00">is_a</text>
</g>
<!-- Hash&#45;&gt;Object -->
<g id="edge24" class="edge"><title>Hash&#45;&gt;Object</title>
<path fill="none" stroke="red" d="M402.804,-441.03C408.033,-438.742 413.677,-436.556 419.096,-435 446.916,-427.011 529.096,-438.835 548.096,-417 552.472,-411.971 549.081,-408.594 548.096,-402 543.153,-368.907 533.907,-362.536 526.096,-330 515.35,-285.238 522.288,-271.791 508.096,-228 507.127,-225.012 505.95,-221.954 504.671,-218.952"/>
<polygon fill="red" stroke="red" points="507.76,-217.292 500.374,-209.696 501.411,-220.24 507.76,-217.292"/>
<text text-anchor="middle" x="547.096" y="-318.8" font-family="Times,serif" font-size="14.00">extends</text>
</g>
<!-- Symbol -->
<g id="node14" class="node"><title>Symbol</title>
<ellipse fill="none" stroke="black" cx="731.096" cy="-453" rx="38.1938" ry="18"/>
<text text-anchor="middle" x="731.096" y="-449.3" font-family="Times,serif" font-size="14.00">Symbol</text>
</g>
<!-- Symbol&#45;&gt;Class -->
<g id="edge25" class="edge"><title>Symbol&#45;&gt;Class</title>
<path fill="none" stroke="blue" d="M702.45,-441C696.432,-438.87 690.091,-436.756 684.096,-435 591.46,-407.862 480.082,-385.147 422.608,-374.138"/>
<polygon fill="blue" stroke="blue" points="422.998,-370.649 412.521,-372.22 421.691,-377.526 422.998,-370.649"/>
<text text-anchor="middle" x="622.096" y="-405.8" font-family="Times,serif" font-size="14.00">is_a</text>
</g>
<!-- Symbol&#45;&gt;Object -->
<g id="edge26" class="edge"><title>Symbol&#45;&gt;Object</title>
<path fill="none" stroke="red" d="M733.943,-434.93C737.607,-407.925 741.405,-354.379 722.096,-315 686.85,-243.121 590.387,-212.363 533.882,-200.192"/>
<polygon fill="red" stroke="red" points="534.319,-196.709 523.82,-198.13 532.914,-203.567 534.319,-196.709"/>
<text text-anchor="middle" x="749.096" y="-318.8" font-family="Times,serif" font-size="14.00">extends</text>
</g>
<!-- Set -->
<g id="node15" class="node"><title>Set</title>
<ellipse fill="none" stroke="black" cx="648.096" cy="-453" rx="27" ry="18"/>
<text text-anchor="middle" x="648.096" y="-449.3" font-family="Times,serif" font-size="14.00">Set</text>
</g>
<!-- Set&#45;&gt;Class -->
<g id="edge27" class="edge"><title>Set&#45;&gt;Class</title>
<path fill="none" stroke="blue" d="M627.581,-441C622.624,-438.714 617.264,-436.536 612.096,-435 555.761,-418.259 536.155,-437.55 481.096,-417 469.662,-412.733 468.748,-407.956 458.096,-402 445.048,-394.704 430.229,-387.495 417.298,-381.533"/>
<polygon fill="blue" stroke="blue" points="418.389,-378.185 407.837,-377.236 415.495,-384.558 418.389,-378.185"/>
<text text-anchor="middle" x="492.096" y="-405.8" font-family="Times,serif" font-size="14.00">is_a</text>
</g>
<!-- Set&#45;&gt;Object -->
<g id="edge28" class="edge"><title>Set&#45;&gt;Object</title>
<path fill="none" stroke="red" d="M656.362,-435.743C668.555,-409.411 688.17,-356.221 671.096,-315 646.532,-255.699 575.198,-221.354 530.054,-204.973"/>
<polygon fill="red" stroke="red" points="531.164,-201.653 520.569,-201.654 528.852,-208.26 531.164,-201.653"/>
<text text-anchor="middle" x="697.096" y="-318.8" font-family="Times,serif" font-size="14.00">extends</text>
</g>
</g>
</svg>
